<mxfile host="app.diagrams.net" modified="2021-05-12T01:37:37.095Z" agent="5.0 (Windows NT 10.0; Win64; x64) AppleWebKit/537.36 (KHTML, like Gecko) Chrome/90.0.4430.212 Safari/537.36" etag="WeWgml_dtLjDLKeSuesh" version="14.6.11" type="github">
  <diagram id="gESAvBa6m3cQaEna-f-X" name="Page-1">
    <mxGraphModel dx="2032" dy="764" grid="1" gridSize="10" guides="1" tooltips="1" connect="1" arrows="1" fold="1" page="1" pageScale="1" pageWidth="850" pageHeight="1100" background="#ffffff" math="0" shadow="0">
      <root>
        <mxCell id="0" />
        <mxCell id="1" parent="0" />
        <mxCell id="VWolVrVNTSvraMZ7hYPC-2" value="" style="rounded=0;whiteSpace=wrap;html=1;rotation=-90;fillColor=#4326FF;" parent="1" vertex="1">
          <mxGeometry x="96.25" y="120" width="677.5" height="510" as="geometry" />
        </mxCell>
        <mxCell id="VWolVrVNTSvraMZ7hYPC-47" value="" style="whiteSpace=wrap;html=1;aspect=fixed;strokeWidth=2;fillColor=#fff2cc;strokeColor=#d6b656;" parent="1" vertex="1">
          <mxGeometry x="340" y="140" width="200" height="200" as="geometry" />
        </mxCell>
        <mxCell id="VWolVrVNTSvraMZ7hYPC-4" value="" style="rounded=0;whiteSpace=wrap;html=1;" parent="1" vertex="1">
          <mxGeometry x="180" y="80" width="510" height="30" as="geometry" />
        </mxCell>
        <mxCell id="VWolVrVNTSvraMZ7hYPC-5" style="edgeStyle=orthogonalEdgeStyle;rounded=0;orthogonalLoop=1;jettySize=auto;html=1;exitX=0;exitY=0;exitDx=0;exitDy=0;entryX=0;entryY=0.5;entryDx=0;entryDy=0;" parent="1" edge="1">
          <mxGeometry relative="1" as="geometry">
            <mxPoint y="80" as="sourcePoint" />
            <mxPoint y="85" as="targetPoint" />
          </mxGeometry>
        </mxCell>
        <mxCell id="VWolVrVNTSvraMZ7hYPC-46" value="pages and whatnot" style="rounded=0;whiteSpace=wrap;html=1;rotation=-90;strokeWidth=2;" parent="1" vertex="1">
          <mxGeometry x="155" y="185" width="200" height="110" as="geometry" />
        </mxCell>
        <mxCell id="VWolVrVNTSvraMZ7hYPC-49" value="name of page" style="rounded=0;whiteSpace=wrap;html=1;strokeWidth=2;" parent="1" vertex="1">
          <mxGeometry x="560" y="140" width="120" height="20" as="geometry" />
        </mxCell>
        <mxCell id="VWolVrVNTSvraMZ7hYPC-52" value="way to much text about myself" style="rounded=0;whiteSpace=wrap;html=1;strokeWidth=2;" parent="1" vertex="1">
          <mxGeometry x="200" y="350" width="480" height="360" as="geometry" />
        </mxCell>
        <mxCell id="VWolVrVNTSvraMZ7hYPC-53" value="basic info" style="rounded=0;whiteSpace=wrap;html=1;rotation=-90;strokeWidth=2;" parent="1" vertex="1">
          <mxGeometry x="557.5" y="177.5" width="125" height="125" as="geometry" />
        </mxCell>
        <mxCell id="VWolVrVNTSvraMZ7hYPC-54" value="" style="line;strokeWidth=2;html=1;gradientColor=none;" parent="1" vertex="1">
          <mxGeometry x="210" y="370" width="450" height="10" as="geometry" />
        </mxCell>
        <mxCell id="VWolVrVNTSvraMZ7hYPC-55" value="" style="line;strokeWidth=2;html=1;gradientColor=none;" parent="1" vertex="1">
          <mxGeometry x="210" y="380" width="450" height="10" as="geometry" />
        </mxCell>
        <mxCell id="VWolVrVNTSvraMZ7hYPC-56" value="" style="line;strokeWidth=2;html=1;gradientColor=none;" parent="1" vertex="1">
          <mxGeometry x="210" y="390" width="450" height="10" as="geometry" />
        </mxCell>
        <mxCell id="VWolVrVNTSvraMZ7hYPC-57" value="" style="line;strokeWidth=2;html=1;gradientColor=none;" parent="1" vertex="1">
          <mxGeometry x="210" y="400" width="450" height="10" as="geometry" />
        </mxCell>
        <mxCell id="VWolVrVNTSvraMZ7hYPC-68" value="" style="shape=actor;whiteSpace=wrap;html=1;sketch=1;strokeWidth=2;fillColor=#9E7E79;gradientColor=none;" parent="1" vertex="1">
          <mxGeometry x="355" y="140" width="170" height="200" as="geometry" />
        </mxCell>
        <mxCell id="VWolVrVNTSvraMZ7hYPC-69" value="" style="rounded=0;whiteSpace=wrap;html=1;rotation=-90;fillColor=#4326FF;" parent="1" vertex="1">
          <mxGeometry x="96.25" y="820" width="677.5" height="510" as="geometry" />
        </mxCell>
        <mxCell id="VWolVrVNTSvraMZ7hYPC-71" value="" style="rounded=0;whiteSpace=wrap;html=1;" parent="1" vertex="1">
          <mxGeometry x="180" y="780" width="510" height="30" as="geometry" />
        </mxCell>
        <mxCell id="VWolVrVNTSvraMZ7hYPC-72" value="&amp;lt;pagesAndWhatnot&amp;gt;" style="rounded=0;whiteSpace=wrap;html=1;rotation=-90;strokeWidth=2;" parent="1" vertex="1">
          <mxGeometry x="155" y="885" width="200" height="110" as="geometry" />
        </mxCell>
        <mxCell id="VWolVrVNTSvraMZ7hYPC-73" value="name of page" style="rounded=0;whiteSpace=wrap;html=1;strokeWidth=2;" parent="1" vertex="1">
          <mxGeometry x="560" y="840" width="120" height="20" as="geometry" />
        </mxCell>
        <mxCell id="VWolVrVNTSvraMZ7hYPC-74" value="way to much text about myself" style="rounded=0;whiteSpace=wrap;html=1;strokeWidth=2;" parent="1" vertex="1">
          <mxGeometry x="200" y="1050" width="480" height="170" as="geometry" />
        </mxCell>
        <mxCell id="VWolVrVNTSvraMZ7hYPC-75" value="" style="rounded=0;whiteSpace=wrap;html=1;rotation=-90;strokeWidth=2;" parent="1" vertex="1">
          <mxGeometry x="557.5" y="877.5" width="125" height="125" as="geometry" />
        </mxCell>
        <mxCell id="VWolVrVNTSvraMZ7hYPC-76" value="" style="line;strokeWidth=2;html=1;gradientColor=none;" parent="1" vertex="1">
          <mxGeometry x="210" y="1070" width="450" height="10" as="geometry" />
        </mxCell>
        <mxCell id="VWolVrVNTSvraMZ7hYPC-77" value="" style="line;strokeWidth=2;html=1;gradientColor=none;" parent="1" vertex="1">
          <mxGeometry x="210" y="1080" width="450" height="10" as="geometry" />
        </mxCell>
        <mxCell id="VWolVrVNTSvraMZ7hYPC-78" value="" style="line;strokeWidth=2;html=1;gradientColor=none;" parent="1" vertex="1">
          <mxGeometry x="210" y="1090" width="450" height="10" as="geometry" />
        </mxCell>
        <mxCell id="VWolVrVNTSvraMZ7hYPC-79" value="" style="line;strokeWidth=2;html=1;gradientColor=none;" parent="1" vertex="1">
          <mxGeometry x="210" y="1100" width="450" height="10" as="geometry" />
        </mxCell>
        <mxCell id="VWolVrVNTSvraMZ7hYPC-81" value="&amp;lt;profile&amp;gt;" style="rounded=0;whiteSpace=wrap;html=1;sketch=1;strokeWidth=2;gradientColor=none;rotation=-90;fillColor=#FFFFFF;" parent="1" vertex="1">
          <mxGeometry x="278.75" y="887.5" width="200" height="105" as="geometry" />
        </mxCell>
        <mxCell id="VWolVrVNTSvraMZ7hYPC-82" value="" style="rounded=0;whiteSpace=wrap;html=1;sketch=1;strokeWidth=2;gradientColor=none;rotation=-90;fillColor=#FFFFFF;" parent="1" vertex="1">
          <mxGeometry x="396.25" y="885" width="200" height="105" as="geometry" />
        </mxCell>
        <mxCell id="VWolVrVNTSvraMZ7hYPC-85" value="" style="rounded=0;whiteSpace=wrap;html=1;sketch=1;strokeWidth=2;fillColor=#FFFFFF;gradientColor=none;rotation=-90;" parent="1" vertex="1">
          <mxGeometry x="218.75" y="1207.5" width="157.5" height="192.5" as="geometry" />
        </mxCell>
        <mxCell id="VWolVrVNTSvraMZ7hYPC-86" value="" style="rounded=0;whiteSpace=wrap;html=1;sketch=1;strokeWidth=2;fillColor=#FFFFFF;gradientColor=none;rotation=-90;" parent="1" vertex="1">
          <mxGeometry x="506.25" y="1207.5" width="157.5" height="192.5" as="geometry" />
        </mxCell>
        <mxCell id="VWolVrVNTSvraMZ7hYPC-87" value="" style="rounded=0;whiteSpace=wrap;html=1;sketch=1;strokeColor=#000000;strokeWidth=2;fillColor=#FFFFFF;gradientColor=none;" parent="1" vertex="1">
          <mxGeometry x="403.75" y="1230" width="75" height="37.5" as="geometry" />
        </mxCell>
        <mxCell id="VWolVrVNTSvraMZ7hYPC-88" value="" style="rounded=0;whiteSpace=wrap;html=1;sketch=1;strokeColor=#000000;strokeWidth=2;fillColor=#FFFFFF;gradientColor=none;" parent="1" vertex="1">
          <mxGeometry x="403.75" y="1273.75" width="72.5" height="106.25" as="geometry" />
        </mxCell>
        <mxCell id="VWolVrVNTSvraMZ7hYPC-89" value="way to much text about myself" style="rounded=0;whiteSpace=wrap;html=1;strokeWidth=2;" parent="1" vertex="1">
          <mxGeometry x="201.25" y="1390" width="480" height="20" as="geometry" />
        </mxCell>
        <mxCell id="VWolVrVNTSvraMZ7hYPC-90" value="" style="rounded=0;whiteSpace=wrap;html=1;rotation=-90;fillColor=#4326FF;" parent="1" vertex="1">
          <mxGeometry x="96.25" y="1520" width="677.5" height="510" as="geometry" />
        </mxCell>
        <mxCell id="VWolVrVNTSvraMZ7hYPC-92" value="" style="rounded=0;whiteSpace=wrap;html=1;" parent="1" vertex="1">
          <mxGeometry x="180" y="1480" width="510" height="30" as="geometry" />
        </mxCell>
        <mxCell id="VWolVrVNTSvraMZ7hYPC-93" value="pages and whatnot" style="rounded=0;whiteSpace=wrap;html=1;rotation=-90;strokeWidth=2;" parent="1" vertex="1">
          <mxGeometry x="155" y="1585" width="200" height="110" as="geometry" />
        </mxCell>
        <mxCell id="VWolVrVNTSvraMZ7hYPC-94" value="name of page" style="rounded=0;whiteSpace=wrap;html=1;strokeWidth=2;" parent="1" vertex="1">
          <mxGeometry x="560" y="1540" width="120" height="20" as="geometry" />
        </mxCell>
        <mxCell id="VWolVrVNTSvraMZ7hYPC-95" value="way to much text about myself" style="rounded=0;whiteSpace=wrap;html=1;strokeWidth=2;" parent="1" vertex="1">
          <mxGeometry x="200" y="1750" width="480" height="360" as="geometry" />
        </mxCell>
        <mxCell id="VWolVrVNTSvraMZ7hYPC-96" value="basic info" style="rounded=0;whiteSpace=wrap;html=1;rotation=-90;strokeWidth=2;" parent="1" vertex="1">
          <mxGeometry x="557.5" y="1577.5" width="125" height="125" as="geometry" />
        </mxCell>
        <mxCell id="VWolVrVNTSvraMZ7hYPC-97" value="" style="line;strokeWidth=2;html=1;gradientColor=none;" parent="1" vertex="1">
          <mxGeometry x="210" y="1770" width="450" height="10" as="geometry" />
        </mxCell>
        <mxCell id="VWolVrVNTSvraMZ7hYPC-98" value="" style="line;strokeWidth=2;html=1;gradientColor=none;" parent="1" vertex="1">
          <mxGeometry x="210" y="1780" width="450" height="10" as="geometry" />
        </mxCell>
        <mxCell id="VWolVrVNTSvraMZ7hYPC-99" value="" style="line;strokeWidth=2;html=1;gradientColor=none;" parent="1" vertex="1">
          <mxGeometry x="210" y="1790" width="450" height="10" as="geometry" />
        </mxCell>
        <mxCell id="VWolVrVNTSvraMZ7hYPC-100" value="" style="line;strokeWidth=2;html=1;gradientColor=none;" parent="1" vertex="1">
          <mxGeometry x="210" y="1800" width="450" height="10" as="geometry" />
        </mxCell>
        <mxCell id="VWolVrVNTSvraMZ7hYPC-102" value="" style="rounded=0;whiteSpace=wrap;html=1;sketch=1;strokeColor=#000000;strokeWidth=2;fillColor=#FFFFFF;gradientColor=none;" parent="1" vertex="1">
          <mxGeometry x="330" y="1540" width="220" height="90" as="geometry" />
        </mxCell>
        <mxCell id="VWolVrVNTSvraMZ7hYPC-103" value="" style="rounded=0;whiteSpace=wrap;html=1;sketch=1;strokeColor=#000000;strokeWidth=2;fillColor=#FFFFFF;gradientColor=none;" parent="1" vertex="1">
          <mxGeometry x="330" y="1642.5" width="220" height="87.5" as="geometry" />
        </mxCell>
        <mxCell id="VWolVrVNTSvraMZ7hYPC-104" value="" style="rounded=0;whiteSpace=wrap;html=1;rotation=-90;fillColor=#4326FF;" parent="1" vertex="1">
          <mxGeometry x="96.25" y="2220" width="677.5" height="510" as="geometry" />
        </mxCell>
        <mxCell id="VWolVrVNTSvraMZ7hYPC-105" value="One piece but bold" style="whiteSpace=wrap;html=1;aspect=fixed;strokeWidth=2;fillColor=#fff2cc;strokeColor=#d6b656;" parent="1" vertex="1">
          <mxGeometry x="340" y="2240" width="200" height="200" as="geometry" />
        </mxCell>
        <mxCell id="VWolVrVNTSvraMZ7hYPC-106" value="" style="rounded=0;whiteSpace=wrap;html=1;" parent="1" vertex="1">
          <mxGeometry x="180" y="2180" width="510" height="30" as="geometry" />
        </mxCell>
        <mxCell id="VWolVrVNTSvraMZ7hYPC-107" value="pages and whatnot" style="rounded=0;whiteSpace=wrap;html=1;rotation=-90;strokeWidth=2;" parent="1" vertex="1">
          <mxGeometry x="155" y="2285" width="200" height="110" as="geometry" />
        </mxCell>
        <mxCell id="VWolVrVNTSvraMZ7hYPC-108" value="name of page" style="rounded=0;whiteSpace=wrap;html=1;strokeWidth=2;" parent="1" vertex="1">
          <mxGeometry x="560" y="2240" width="120" height="20" as="geometry" />
        </mxCell>
        <mxCell id="VWolVrVNTSvraMZ7hYPC-109" value="way to much text about myself" style="rounded=0;whiteSpace=wrap;html=1;strokeWidth=2;" parent="1" vertex="1">
          <mxGeometry x="200" y="2450" width="480" height="360" as="geometry" />
        </mxCell>
        <mxCell id="VWolVrVNTSvraMZ7hYPC-110" value="basic info" style="rounded=0;whiteSpace=wrap;html=1;rotation=-90;strokeWidth=2;" parent="1" vertex="1">
          <mxGeometry x="557.5" y="2277.5" width="125" height="125" as="geometry" />
        </mxCell>
        <mxCell id="VWolVrVNTSvraMZ7hYPC-111" value="" style="line;strokeWidth=2;html=1;gradientColor=none;" parent="1" vertex="1">
          <mxGeometry x="210" y="2470" width="450" height="10" as="geometry" />
        </mxCell>
        <mxCell id="VWolVrVNTSvraMZ7hYPC-112" value="" style="line;strokeWidth=2;html=1;gradientColor=none;" parent="1" vertex="1">
          <mxGeometry x="210" y="2480" width="450" height="10" as="geometry" />
        </mxCell>
        <mxCell id="VWolVrVNTSvraMZ7hYPC-113" value="" style="line;strokeWidth=2;html=1;gradientColor=none;" parent="1" vertex="1">
          <mxGeometry x="210" y="2490" width="450" height="10" as="geometry" />
        </mxCell>
        <mxCell id="VWolVrVNTSvraMZ7hYPC-114" value="" style="line;strokeWidth=2;html=1;gradientColor=none;" parent="1" vertex="1">
          <mxGeometry x="210" y="2500" width="450" height="10" as="geometry" />
        </mxCell>
        <mxCell id="VWolVrVNTSvraMZ7hYPC-117" value="" style="rounded=0;whiteSpace=wrap;html=1;rotation=-90;fillColor=#4326FF;" parent="1" vertex="1">
          <mxGeometry x="101.25" y="2920" width="677.5" height="510" as="geometry" />
        </mxCell>
        <mxCell id="VWolVrVNTSvraMZ7hYPC-118" value="One piece but bold" style="whiteSpace=wrap;html=1;aspect=fixed;strokeWidth=2;fillColor=#fff2cc;strokeColor=#d6b656;" parent="1" vertex="1">
          <mxGeometry x="345" y="2940" width="200" height="200" as="geometry" />
        </mxCell>
        <mxCell id="VWolVrVNTSvraMZ7hYPC-119" value="" style="rounded=0;whiteSpace=wrap;html=1;" parent="1" vertex="1">
          <mxGeometry x="185" y="2880" width="510" height="30" as="geometry" />
        </mxCell>
        <mxCell id="VWolVrVNTSvraMZ7hYPC-120" value="pages and whatnot" style="rounded=0;whiteSpace=wrap;html=1;rotation=-90;strokeWidth=2;" parent="1" vertex="1">
          <mxGeometry x="160" y="2985" width="200" height="110" as="geometry" />
        </mxCell>
        <mxCell id="VWolVrVNTSvraMZ7hYPC-121" value="name of page" style="rounded=0;whiteSpace=wrap;html=1;strokeWidth=2;" parent="1" vertex="1">
          <mxGeometry x="565" y="2940" width="120" height="20" as="geometry" />
        </mxCell>
        <mxCell id="VWolVrVNTSvraMZ7hYPC-122" value="way to much text about myself" style="rounded=0;whiteSpace=wrap;html=1;strokeWidth=2;" parent="1" vertex="1">
          <mxGeometry x="205" y="3150" width="480" height="360" as="geometry" />
        </mxCell>
        <mxCell id="VWolVrVNTSvraMZ7hYPC-123" value="basic info" style="rounded=0;whiteSpace=wrap;html=1;rotation=-90;strokeWidth=2;" parent="1" vertex="1">
          <mxGeometry x="562.5" y="2977.5" width="125" height="125" as="geometry" />
        </mxCell>
        <mxCell id="VWolVrVNTSvraMZ7hYPC-124" value="" style="line;strokeWidth=2;html=1;gradientColor=none;" parent="1" vertex="1">
          <mxGeometry x="215" y="3170" width="450" height="10" as="geometry" />
        </mxCell>
        <mxCell id="VWolVrVNTSvraMZ7hYPC-125" value="" style="line;strokeWidth=2;html=1;gradientColor=none;" parent="1" vertex="1">
          <mxGeometry x="215" y="3180" width="450" height="10" as="geometry" />
        </mxCell>
        <mxCell id="VWolVrVNTSvraMZ7hYPC-126" value="" style="line;strokeWidth=2;html=1;gradientColor=none;" parent="1" vertex="1">
          <mxGeometry x="215" y="3190" width="450" height="10" as="geometry" />
        </mxCell>
        <mxCell id="VWolVrVNTSvraMZ7hYPC-127" value="" style="line;strokeWidth=2;html=1;gradientColor=none;" parent="1" vertex="1">
          <mxGeometry x="215" y="3200" width="450" height="10" as="geometry" />
        </mxCell>
        <mxCell id="TmDD9hDNsNp6nZDNsuHp-1" value="&amp;lt;lmao idk&amp;gt;" style="text;html=1;strokeColor=none;fillColor=none;align=center;verticalAlign=middle;whiteSpace=wrap;rounded=0;" vertex="1" parent="1">
          <mxGeometry x="210" y="302.5" width="90" height="20" as="geometry" />
        </mxCell>
        <mxCell id="TmDD9hDNsNp6nZDNsuHp-2" value="&lt;span style=&quot;background-color: rgb(255 , 255 , 255)&quot;&gt;4326FF&lt;/span&gt;" style="text;html=1;strokeColor=none;fillColor=none;align=center;verticalAlign=middle;whiteSpace=wrap;rounded=0;" vertex="1" parent="1">
          <mxGeometry x="238.75" y="50" width="40" height="20" as="geometry" />
        </mxCell>
        <mxCell id="TmDD9hDNsNp6nZDNsuHp-5" value="FFF2CC" style="text;html=1;strokeColor=none;fillColor=none;align=center;verticalAlign=middle;whiteSpace=wrap;rounded=0;" vertex="1" parent="1">
          <mxGeometry x="490" y="185" width="40" height="20" as="geometry" />
        </mxCell>
        <mxCell id="TmDD9hDNsNp6nZDNsuHp-6" value="FFFFFF" style="text;html=1;strokeColor=none;fillColor=none;align=center;verticalAlign=middle;whiteSpace=wrap;rounded=0;" vertex="1" parent="1">
          <mxGeometry x="210" y="150" width="40" height="20" as="geometry" />
        </mxCell>
        <mxCell id="TmDD9hDNsNp6nZDNsuHp-7" value="FFFFFF" style="text;html=1;strokeColor=none;fillColor=none;align=center;verticalAlign=middle;whiteSpace=wrap;rounded=0;" vertex="1" parent="1">
          <mxGeometry x="405" y="1565" width="40" height="20" as="geometry" />
        </mxCell>
        <mxCell id="TmDD9hDNsNp6nZDNsuHp-8" value="FFFFFF" style="text;html=1;strokeColor=none;fillColor=none;align=center;verticalAlign=middle;whiteSpace=wrap;rounded=0;" vertex="1" parent="1">
          <mxGeometry x="610" y="205" width="40" height="20" as="geometry" />
        </mxCell>
        <mxCell id="TmDD9hDNsNp6nZDNsuHp-9" value="FFFFFF" style="text;html=1;strokeColor=none;fillColor=none;align=center;verticalAlign=middle;whiteSpace=wrap;rounded=0;" vertex="1" parent="1">
          <mxGeometry x="270" y="950" width="40" height="20" as="geometry" />
        </mxCell>
        <mxCell id="TmDD9hDNsNp6nZDNsuHp-10" value="FFFFFF" style="text;html=1;strokeColor=none;fillColor=none;align=center;verticalAlign=middle;whiteSpace=wrap;rounded=0;" vertex="1" parent="1">
          <mxGeometry x="540" y="140" width="40" height="20" as="geometry" />
        </mxCell>
        <mxCell id="TmDD9hDNsNp6nZDNsuHp-11" value="FFFFFF" style="text;html=1;strokeColor=none;fillColor=none;align=center;verticalAlign=middle;whiteSpace=wrap;rounded=0;" vertex="1" parent="1">
          <mxGeometry x="478.75" y="930" width="40" height="20" as="geometry" />
        </mxCell>
        <mxCell id="TmDD9hDNsNp6nZDNsuHp-12" value="FFFFFF" style="text;html=1;strokeColor=none;fillColor=none;align=center;verticalAlign=middle;whiteSpace=wrap;rounded=0;" vertex="1" parent="1">
          <mxGeometry x="505" y="90" width="40" height="20" as="geometry" />
        </mxCell>
        <mxCell id="TmDD9hDNsNp6nZDNsuHp-13" value="FFFFFF" style="text;html=1;strokeColor=none;fillColor=none;align=center;verticalAlign=middle;whiteSpace=wrap;rounded=0;" vertex="1" parent="1">
          <mxGeometry x="376.25" y="900" width="40" height="20" as="geometry" />
        </mxCell>
        <mxCell id="TmDD9hDNsNp6nZDNsuHp-16" value="FFFFFF" style="text;html=1;strokeColor=none;fillColor=none;align=center;verticalAlign=middle;whiteSpace=wrap;rounded=0;" vertex="1" parent="1">
          <mxGeometry x="425" y="1238.75" width="40" height="20" as="geometry" />
        </mxCell>
        <mxCell id="TmDD9hDNsNp6nZDNsuHp-17" value="FFFFFF" style="text;html=1;strokeColor=none;fillColor=none;align=center;verticalAlign=middle;whiteSpace=wrap;rounded=0;" vertex="1" parent="1">
          <mxGeometry x="545" y="840" width="40" height="20" as="geometry" />
        </mxCell>
        <mxCell id="TmDD9hDNsNp6nZDNsuHp-18" value="FFFFFF" style="text;html=1;strokeColor=none;fillColor=none;align=center;verticalAlign=middle;whiteSpace=wrap;rounded=0;" vertex="1" parent="1">
          <mxGeometry x="562.5" y="930" width="40" height="20" as="geometry" />
        </mxCell>
        <mxCell id="TmDD9hDNsNp6nZDNsuHp-19" value="FFFFFF" style="text;html=1;strokeColor=none;fillColor=none;align=center;verticalAlign=middle;whiteSpace=wrap;rounded=0;" vertex="1" parent="1">
          <mxGeometry x="434.38" y="1160" width="40" height="20" as="geometry" />
        </mxCell>
        <mxCell id="TmDD9hDNsNp6nZDNsuHp-22" value="FFFFFF" style="text;html=1;strokeColor=none;fillColor=none;align=center;verticalAlign=middle;whiteSpace=wrap;rounded=0;" vertex="1" parent="1">
          <mxGeometry x="550" y="1390" width="40" height="20" as="geometry" />
        </mxCell>
        <mxCell id="TmDD9hDNsNp6nZDNsuHp-23" value="FFFFFF" style="text;html=1;strokeColor=none;fillColor=none;align=center;verticalAlign=middle;whiteSpace=wrap;rounded=0;" vertex="1" parent="1">
          <mxGeometry x="420" y="1316.88" width="40" height="20" as="geometry" />
        </mxCell>
        <mxCell id="TmDD9hDNsNp6nZDNsuHp-24" value="FFFFFF" style="text;html=1;strokeColor=none;fillColor=none;align=center;verticalAlign=middle;whiteSpace=wrap;rounded=0;" vertex="1" parent="1">
          <mxGeometry x="540" y="1273.75" width="40" height="20" as="geometry" />
        </mxCell>
        <mxCell id="TmDD9hDNsNp6nZDNsuHp-25" value="FFFFFF" style="text;html=1;strokeColor=none;fillColor=none;align=center;verticalAlign=middle;whiteSpace=wrap;rounded=0;" vertex="1" parent="1">
          <mxGeometry x="290" y="1310" width="40" height="20" as="geometry" />
        </mxCell>
        <mxCell id="TmDD9hDNsNp6nZDNsuHp-29" value="&amp;lt;textSection&amp;gt;" style="text;html=1;strokeColor=none;fillColor=none;align=center;verticalAlign=middle;whiteSpace=wrap;rounded=0;" vertex="1" parent="1">
          <mxGeometry x="378.75" y="1140" width="151.25" height="20" as="geometry" />
        </mxCell>
        <mxCell id="TmDD9hDNsNp6nZDNsuHp-30" value="&amp;lt;basicInfo&amp;gt;" style="text;html=1;strokeColor=none;fillColor=none;align=center;verticalAlign=middle;whiteSpace=wrap;rounded=0;" vertex="1" parent="1">
          <mxGeometry x="596.25" y="970" width="40" height="20" as="geometry" />
        </mxCell>
        <mxCell id="TmDD9hDNsNp6nZDNsuHp-31" value="&lt;span style=&quot;background-color: rgb(255 , 255 , 255)&quot;&gt;&amp;lt;profile2&amp;gt;&lt;/span&gt;" style="text;html=1;strokeColor=none;fillColor=none;align=center;verticalAlign=middle;whiteSpace=wrap;rounded=0;" vertex="1" parent="1">
          <mxGeometry x="466.25" y="970" width="40" height="20" as="geometry" />
        </mxCell>
        <mxCell id="TmDD9hDNsNp6nZDNsuHp-32" value="&lt;span style=&quot;background-color: rgb(255 , 255 , 255)&quot;&gt;&amp;lt;profile3&amp;gt;&lt;/span&gt;" style="text;html=1;strokeColor=none;fillColor=none;align=center;verticalAlign=middle;whiteSpace=wrap;rounded=0;" vertex="1" parent="1">
          <mxGeometry x="240" y="1253.75" width="40" height="20" as="geometry" />
        </mxCell>
        <mxCell id="TmDD9hDNsNp6nZDNsuHp-33" value="&lt;span style=&quot;background-color: rgb(255 , 255 , 255)&quot;&gt;&amp;lt;profile4&amp;gt;&lt;/span&gt;" style="text;html=1;strokeColor=none;fillColor=none;align=center;verticalAlign=middle;whiteSpace=wrap;rounded=0;" vertex="1" parent="1">
          <mxGeometry x="602.5" y="1300" width="40" height="20" as="geometry" />
        </mxCell>
        <mxCell id="TmDD9hDNsNp6nZDNsuHp-34" value="&amp;lt;textSection2&amp;gt;" style="text;html=1;strokeColor=none;fillColor=none;align=center;verticalAlign=middle;whiteSpace=wrap;rounded=0;" vertex="1" parent="1">
          <mxGeometry x="214.38" y="1390" width="151.25" height="20" as="geometry" />
        </mxCell>
        <mxCell id="TmDD9hDNsNp6nZDNsuHp-35" value="&amp;lt;basicInfo2&amp;gt;" style="text;html=1;strokeColor=none;fillColor=none;align=center;verticalAlign=middle;whiteSpace=wrap;rounded=0;" vertex="1" parent="1">
          <mxGeometry x="420" y="1290" width="40" height="20" as="geometry" />
        </mxCell>
        <mxCell id="TmDD9hDNsNp6nZDNsuHp-36" style="edgeStyle=orthogonalEdgeStyle;rounded=0;orthogonalLoop=1;jettySize=auto;html=1;exitX=0;exitY=0.25;exitDx=0;exitDy=0;entryX=0;entryY=0;entryDx=0;entryDy=0;" edge="1" parent="1" source="TmDD9hDNsNp6nZDNsuHp-23" target="TmDD9hDNsNp6nZDNsuHp-23">
          <mxGeometry relative="1" as="geometry" />
        </mxCell>
        <mxCell id="TmDD9hDNsNp6nZDNsuHp-37" value="&amp;lt;sectionName" style="text;html=1;strokeColor=none;fillColor=none;align=center;verticalAlign=middle;whiteSpace=wrap;rounded=0;" vertex="1" parent="1">
          <mxGeometry x="426.25" y="1247.5" width="40" height="20" as="geometry" />
        </mxCell>
      </root>
    </mxGraphModel>
  </diagram>
</mxfile>
